# xmcd
# Copyright (C) 1995-1998 Ti Kan
#
# Track frame offsets:
#       150
#       32374
#       41021
#       64760
#       87784
#       127831
#       166754
#       189400
#       220946
#       231774
#
# Disc length: 3932 seconds
#
# Revision: 0
# Processed by: cddbd v1.5.2PL0 Copyright (c) Steve Scherf et al.
# Submitted via: CD-Transfer v1.0
#
DISCID=760f5a0a
DTITLE=Titus Andronicus - Titus Andronicus
DYEAR=10
DGENRE=
TTITLE0=A More Perfect Union
TTITLE1=Titus Andronicus Forever
TTITLE2=No Future Pt. 3: Escape From No Future
TTITLE3=Richard Ii
TTITLE4=A Pot In Which To Piss
TTITLE5=Four Score And Seven
TTITLE6=Theme From ''cheers''
TTITLE7=To Old Friends And New
TTITLE8=And Ever
TTITLE9=Battle Of Hampton Roads, The
EXTD=
EXTT0=
EXTT1=
EXTT2=
EXTT3=
EXTT4=
EXTT5=
EXTT6=
EXTT7=
EXTT8=
EXTT9=
PLAYORDER=
